<svg width="174" height="36" viewBox="0 0 174 36" fill="none" xmlns="http://www.w3.org/2000/svg">
<path d="M2.85 28C2.65 28 2.47 27.93 2.31 27.79C2.17 27.65 2.1 27.47 2.1 27.25V7.75C2.1 7.53 2.17 7.35 2.31 7.21C2.47 7.07 2.65 7 2.85 7H6.09C6.41 7 6.65 7.09 6.81 7.27C6.99 7.43 7.1 7.56 7.14 7.66L12.42 17.14L17.7 7.66C17.76 7.56 17.86 7.43 18 7.27C18.16 7.09 18.41 7 18.75 7H21.96C22.18 7 22.36 7.07 22.5 7.21C22.66 7.35 22.74 7.53 22.74 7.75V27.25C22.74 27.47 22.66 27.65 22.5 27.79C22.36 27.93 22.18 28 21.96 28H18.39C18.17 28 17.98 27.93 17.82 27.79C17.68 27.65 17.61 27.47 17.61 27.25V16L14.22 22.27C14.14 22.45 14.02 22.61 13.86 22.75C13.7 22.89 13.48 22.96 13.2 22.96H11.64C11.36 22.96 11.14 22.89 10.98 22.75C10.82 22.61 10.69 22.45 10.59 22.27L7.2 16V27.25C7.2 27.47 7.13 27.65 6.99 27.79C6.85 27.93 6.67 28 6.45 28H2.85ZM33.7845 28.3C31.4245 28.3 29.5445 27.66 28.1445 26.38C26.7445 25.1 26.0145 23.2 25.9545 20.68C25.9545 20.54 25.9545 20.36 25.9545 20.14C25.9545 19.92 25.9545 19.75 25.9545 19.63C26.0145 18.05 26.3645 16.7 27.0045 15.58C27.6645 14.44 28.5645 13.58 29.7045 13C30.8645 12.4 32.2145 12.1 33.7545 12.1C35.5145 12.1 36.9645 12.45 38.1045 13.15C39.2645 13.85 40.1345 14.8 40.7145 16C41.2945 17.2 41.5845 18.57 41.5845 20.11V20.83C41.5845 21.05 41.5045 21.23 41.3445 21.37C41.2045 21.51 41.0345 21.58 40.8345 21.58H31.2345C31.2345 21.6 31.2345 21.63 31.2345 21.67C31.2345 21.71 31.2345 21.75 31.2345 21.79C31.2545 22.37 31.3545 22.9 31.5345 23.38C31.7145 23.86 31.9945 24.24 32.3745 24.52C32.7545 24.8 33.2145 24.94 33.7545 24.94C34.1545 24.94 34.4845 24.88 34.7445 24.76C35.0245 24.62 35.2545 24.47 35.4345 24.31C35.6145 24.13 35.7545 23.98 35.8545 23.86C36.0345 23.66 36.1745 23.54 36.2745 23.5C36.3945 23.44 36.5745 23.41 36.8145 23.41H40.5345C40.7345 23.41 40.8945 23.47 41.0145 23.59C41.1545 23.69 41.2145 23.84 41.1945 24.04C41.1745 24.38 41.0045 24.79 40.6845 25.27C40.3645 25.75 39.8945 26.23 39.2745 26.71C38.6745 27.17 37.9145 27.55 36.9945 27.85C36.0745 28.15 35.0045 28.3 33.7845 28.3ZM31.2345 18.61H36.3045V18.55C36.3045 17.91 36.2045 17.35 36.0045 16.87C35.8245 16.39 35.5345 16.02 35.1345 15.76C34.7545 15.5 34.2945 15.37 33.7545 15.37C33.2145 15.37 32.7545 15.5 32.3745 15.76C32.0145 16.02 31.7345 16.39 31.5345 16.87C31.3345 17.35 31.2345 17.91 31.2345 18.55V18.61ZM50.217 28.3C49.257 28.3 48.387 28.15 47.607 27.85C46.847 27.53 46.187 27.07 45.627 26.47C45.087 25.85 44.667 25.11 44.367 24.25C44.067 23.37 43.897 22.37 43.857 21.25C43.837 20.85 43.827 20.5 43.827 20.2C43.827 19.88 43.837 19.53 43.857 19.15C43.897 18.07 44.067 17.1 44.367 16.24C44.667 15.38 45.087 14.64 45.627 14.02C46.167 13.4 46.827 12.93 47.607 12.61C48.387 12.27 49.257 12.1 50.217 12.1C51.217 12.1 52.077 12.27 52.797 12.61C53.517 12.93 54.127 13.35 54.627 13.87V7.45C54.627 7.23 54.697 7.05 54.837 6.91C54.977 6.77 55.157 6.7 55.377 6.7H59.037C59.237 6.7 59.407 6.77 59.547 6.91C59.707 7.05 59.787 7.23 59.787 7.45V27.25C59.787 27.47 59.707 27.65 59.547 27.79C59.407 27.93 59.237 28 59.037 28H55.647C55.427 28 55.247 27.93 55.107 27.79C54.967 27.65 54.897 27.47 54.897 27.25V26.29C54.417 26.87 53.797 27.35 53.037 27.73C52.277 28.11 51.337 28.3 50.217 28.3ZM51.837 24.28C52.517 24.28 53.047 24.14 53.427 23.86C53.827 23.56 54.117 23.18 54.297 22.72C54.497 22.26 54.607 21.76 54.627 21.22C54.647 20.82 54.657 20.44 54.657 20.08C54.657 19.72 54.647 19.35 54.627 18.97C54.607 18.47 54.497 18.01 54.297 17.59C54.097 17.15 53.797 16.8 53.397 16.54C52.997 16.26 52.477 16.12 51.837 16.12C51.177 16.12 50.647 16.26 50.247 16.54C49.867 16.82 49.597 17.2 49.437 17.68C49.277 18.16 49.177 18.69 49.137 19.27C49.077 19.89 49.077 20.51 49.137 21.13C49.177 21.71 49.277 22.24 49.437 22.72C49.597 23.2 49.867 23.58 50.247 23.86C50.647 24.14 51.177 24.28 51.837 24.28ZM69.0527 28.3C67.9127 28.3 66.8927 28.04 65.9927 27.52C65.1127 27 64.4227 26.24 63.9227 25.24C63.4227 24.22 63.1727 22.98 63.1727 21.52V13.15C63.1727 12.93 63.2427 12.75 63.3827 12.61C63.5227 12.47 63.7027 12.4 63.9227 12.4H67.6727C67.8927 12.4 68.0727 12.47 68.2127 12.61C68.3527 12.75 68.4227 12.93 68.4227 13.15V21.34C68.4227 23.3 69.3027 24.28 71.0627 24.28C71.8827 24.28 72.5327 24.03 73.0127 23.53C73.5127 23.01 73.7627 22.28 73.7627 21.34V13.15C73.7627 12.93 73.8327 12.75 73.9727 12.61C74.1127 12.47 74.2927 12.4 74.5127 12.4H78.2627C78.4827 12.4 78.6627 12.47 78.8027 12.61C78.9427 12.75 79.0127 12.93 79.0127 13.15V27.25C79.0127 27.47 78.9427 27.65 78.8027 27.79C78.6627 27.93 78.4827 28 78.2627 28H74.7827C74.5827 28 74.4027 27.93 74.2427 27.79C74.1027 27.65 74.0327 27.47 74.0327 27.25V26.11C73.5127 26.83 72.8327 27.38 71.9927 27.76C71.1727 28.12 70.1927 28.3 69.0527 28.3ZM90.7015 28.3C88.7015 28.3 87.0415 28.02 85.7215 27.46C84.4015 26.88 83.4015 26.13 82.7215 25.21C82.0415 24.29 81.6815 23.31 81.6415 22.27C81.6415 22.11 81.7015 21.97 81.8215 21.85C81.9615 21.71 82.1215 21.64 82.3015 21.64H86.0815C86.3615 21.64 86.5715 21.69 86.7115 21.79C86.8715 21.89 87.0115 22.02 87.1315 22.18C87.2915 22.48 87.5115 22.77 87.7915 23.05C88.0915 23.33 88.4715 23.56 88.9315 23.74C89.4115 23.9 90.0015 23.98 90.7015 23.98C91.8615 23.98 92.7315 23.8 93.3115 23.44C93.9115 23.08 94.2115 22.59 94.2115 21.97C94.2115 21.53 94.0515 21.17 93.7315 20.89C93.4115 20.59 92.8915 20.33 92.1715 20.11C91.4715 19.87 90.5315 19.63 89.3515 19.39C87.8315 19.07 86.5315 18.66 85.4515 18.16C84.3915 17.64 83.5815 16.97 83.0215 16.15C82.4615 15.31 82.1815 14.27 82.1815 13.03C82.1815 11.81 82.5215 10.72 83.2015 9.76C83.9015 8.8 84.8715 8.05 86.1115 7.51C87.3515 6.97 88.8215 6.7 90.5215 6.7C91.9015 6.7 93.1115 6.88 94.1515 7.24C95.2115 7.6 96.1015 8.08 96.8215 8.68C97.5415 9.28 98.0815 9.92 98.4415 10.6C98.8215 11.26 99.0215 11.91 99.0415 12.55C99.0415 12.71 98.9815 12.86 98.8615 13C98.7415 13.12 98.5915 13.18 98.4115 13.18H94.4515C94.2315 13.18 94.0415 13.14 93.8815 13.06C93.7215 12.98 93.5815 12.85 93.4615 12.67C93.3415 12.23 93.0215 11.85 92.5015 11.53C92.0015 11.19 91.3415 11.02 90.5215 11.02C89.6415 11.02 88.9515 11.18 88.4515 11.5C87.9715 11.8 87.7315 12.27 87.7315 12.91C87.7315 13.31 87.8615 13.66 88.1215 13.96C88.4015 14.26 88.8515 14.52 89.4715 14.74C90.1115 14.96 90.9815 15.19 92.0815 15.43C93.9015 15.77 95.3715 16.2 96.4915 16.72C97.6115 17.22 98.4315 17.88 98.9515 18.7C99.4715 19.5 99.7315 20.51 99.7315 21.73C99.7315 23.09 99.3415 24.27 98.5615 25.27C97.8015 26.25 96.7415 27 95.3815 27.52C94.0215 28.04 92.4615 28.3 90.7015 28.3ZM110.385 28C109.105 28 107.995 27.8 107.055 27.4C106.135 26.98 105.425 26.34 104.925 25.48C104.425 24.6 104.175 23.47 104.175 22.09V16.33H101.835C101.615 16.33 101.425 16.26 101.265 16.12C101.125 15.98 101.055 15.8 101.055 15.58V13.15C101.055 12.93 101.125 12.75 101.265 12.61C101.425 12.47 101.615 12.4 101.835 12.4H104.175V7.45C104.175 7.23 104.245 7.05 104.385 6.91C104.545 6.77 104.725 6.7 104.925 6.7H108.405C108.625 6.7 108.805 6.77 108.945 6.91C109.085 7.05 109.155 7.23 109.155 7.45V12.4H112.905C113.125 12.4 113.305 12.47 113.445 12.61C113.585 12.75 113.655 12.93 113.655 13.15V15.58C113.655 15.8 113.585 15.98 113.445 16.12C113.305 16.26 113.125 16.33 112.905 16.33H109.155V21.67C109.155 22.35 109.285 22.89 109.545 23.29C109.805 23.69 110.245 23.89 110.865 23.89H113.175C113.395 23.89 113.575 23.96 113.715 24.1C113.855 24.24 113.925 24.42 113.925 24.64V27.25C113.925 27.47 113.855 27.65 113.715 27.79C113.575 27.93 113.395 28 113.175 28H110.385ZM123.789 28.3C122.109 28.3 120.689 28.03 119.529 27.49C118.389 26.95 117.509 26.18 116.889 25.18C116.289 24.16 115.949 22.95 115.869 21.55C115.849 21.15 115.839 20.7 115.839 20.2C115.839 19.68 115.849 19.23 115.869 18.85C115.949 17.43 116.309 16.22 116.949 15.22C117.589 14.22 118.479 13.45 119.619 12.91C120.779 12.37 122.169 12.1 123.789 12.1C125.429 12.1 126.819 12.37 127.959 12.91C129.119 13.45 130.019 14.22 130.659 15.22C131.299 16.22 131.659 17.43 131.739 18.85C131.759 19.23 131.769 19.68 131.769 20.2C131.769 20.7 131.759 21.15 131.739 21.55C131.659 22.95 131.309 24.16 130.689 25.18C130.089 26.18 129.209 26.95 128.049 27.49C126.909 28.03 125.489 28.3 123.789 28.3ZM123.789 24.64C124.689 24.64 125.339 24.37 125.739 23.83C126.159 23.29 126.399 22.48 126.459 21.4C126.479 21.1 126.489 20.7 126.489 20.2C126.489 19.7 126.479 19.3 126.459 19C126.399 17.94 126.159 17.14 125.739 16.6C125.339 16.04 124.689 15.76 123.789 15.76C122.909 15.76 122.259 16.04 121.839 16.6C121.419 17.14 121.189 17.94 121.149 19C121.129 19.3 121.119 19.7 121.119 20.2C121.119 20.7 121.129 21.1 121.149 21.4C121.189 22.48 121.419 23.29 121.839 23.83C122.259 24.37 122.909 24.64 123.789 24.64ZM135.469 28C135.249 28 135.069 27.93 134.929 27.79C134.789 27.65 134.719 27.47 134.719 27.25V13.15C134.719 12.95 134.789 12.78 134.929 12.64C135.069 12.48 135.249 12.4 135.469 12.4H138.919C139.139 12.4 139.319 12.48 139.459 12.64C139.599 12.78 139.669 12.95 139.669 13.15V14.35C140.209 13.73 140.849 13.25 141.589 12.91C142.349 12.57 143.199 12.4 144.139 12.4H145.459C145.659 12.4 145.829 12.47 145.969 12.61C146.129 12.75 146.209 12.93 146.209 13.15V16.24C146.209 16.44 146.129 16.62 145.969 16.78C145.829 16.92 145.659 16.99 145.459 16.99H142.549C141.729 16.99 141.089 17.22 140.629 17.68C140.189 18.12 139.969 18.75 139.969 19.57V27.25C139.969 27.47 139.889 27.65 139.729 27.79C139.589 27.93 139.409 28 139.189 28H135.469ZM155.425 28.3C153.065 28.3 151.185 27.66 149.785 26.38C148.385 25.1 147.655 23.2 147.595 20.68C147.595 20.54 147.595 20.36 147.595 20.14C147.595 19.92 147.595 19.75 147.595 19.63C147.655 18.05 148.005 16.7 148.645 15.58C149.305 14.44 150.205 13.58 151.345 13C152.505 12.4 153.855 12.1 155.395 12.1C157.155 12.1 158.605 12.45 159.745 13.15C160.905 13.85 161.775 14.8 162.355 16C162.935 17.2 163.225 18.57 163.225 20.11V20.83C163.225 21.05 163.145 21.23 162.985 21.37C162.845 21.51 162.675 21.58 162.475 21.58H152.875C152.875 21.6 152.875 21.63 152.875 21.67C152.875 21.71 152.875 21.75 152.875 21.79C152.895 22.37 152.995 22.9 153.175 23.38C153.355 23.86 153.635 24.24 154.015 24.52C154.395 24.8 154.855 24.94 155.395 24.94C155.795 24.94 156.125 24.88 156.385 24.76C156.665 24.62 156.895 24.47 157.075 24.31C157.255 24.13 157.395 23.98 157.495 23.86C157.675 23.66 157.815 23.54 157.915 23.5C158.035 23.44 158.215 23.41 158.455 23.41H162.175C162.375 23.41 162.535 23.47 162.655 23.59C162.795 23.69 162.855 23.84 162.835 24.04C162.815 24.38 162.645 24.79 162.325 25.27C162.005 25.75 161.535 26.23 160.915 26.71C160.315 27.17 159.555 27.55 158.635 27.85C157.715 28.15 156.645 28.3 155.425 28.3ZM152.875 18.61H157.945V18.55C157.945 17.91 157.845 17.35 157.645 16.87C157.465 16.39 157.175 16.02 156.775 15.76C156.395 15.5 155.935 15.37 155.395 15.37C154.855 15.37 154.395 15.5 154.015 15.76C153.655 16.02 153.375 16.39 153.175 16.87C152.975 17.35 152.875 17.91 152.875 18.55V18.61Z" fill="#11111F"/>
<rect x="166" y="20" width="8" height="8" fill="#FE4536"/>
</svg>
